<svg xmlns="http://www.w3.org/2000/svg" xmlns:xlink="http://www.w3.org/1999/xlink" version="1.1" x="0px" y="0px" viewBox="0 0 100 125" style="enable-background:new 0 0 100 100;" xml:space="preserve"><g><path d="M71.371,10.143c0-0.968-0.784-1.753-1.752-1.753H56.642c-0.968,0-1.753,0.785-1.753,1.753v28.364   c5.903,0.206,11.47,0.781,16.482,1.651V10.143z"/><path d="M49.957,20.111c0-0.967-0.784-1.752-1.752-1.752H35.229c-0.968,0-1.751,0.785-1.751,1.752V39.43   c5.111-0.65,10.667-1.008,16.479-1.01V20.111z"/><path d="M28.83,28.359c0-0.969-0.784-1.754-1.752-1.754H14.103c-0.968,0-1.753,0.785-1.753,1.754v16.544   c4.215-2,9.873-3.648,16.48-4.782V28.359z"/><path d="M97.5,54.722c0-4.45-4.246-8.412-12.279-11.458c-0.045-0.017-0.092-0.023-0.137-0.037c-0.057-0.016-0.11-0.034-0.168-0.045   c-0.067-0.012-0.134-0.016-0.201-0.02c-0.041-0.003-0.077-0.012-0.119-0.012c-0.008,0-0.016,0.003-0.022,0.003   c-0.147,0.002-0.292,0.024-0.432,0.062c-0.014,0.003-0.027,0.001-0.04,0.005l-6.795,2C70.819,43.03,58.142,41.569,50,41.569   c-23.716,0-42.955,5.625-46.782,13.677C2.741,56.244,2.5,57.283,2.5,58.332c0,0.301,0.024,0.599,0.062,0.896   C2.525,59.37,2.5,59.516,2.5,59.67v14.297c0,0.008,0.001,0.015,0.001,0.022c0.015,4.311,4.177,8.186,12.044,11.207   c7.057,2.71,16.718,4.575,27.202,5.251c0.038,0.003,0.074,0.004,0.111,0.004h0.001c0,0,0,0,0.001,0l0,0h0.001l0,0   c0.001,0,0.001,0,0.001,0c0.116,0,0.231-0.013,0.343-0.035c0.019-0.003,0.036-0.01,0.053-0.015   c0.034-0.008,0.066-0.021,0.098-0.029c0.058-0.018,0.116-0.032,0.171-0.054c0.036-0.016,0.07-0.036,0.104-0.054   c0.036-0.017,0.071-0.034,0.104-0.054c0.028-0.016,0.058-0.029,0.083-0.047c0.045-0.029,0.084-0.063,0.124-0.096   c0.024-0.019,0.05-0.035,0.07-0.055c0.015-0.012,0.03-0.02,0.044-0.033c0.007-0.007,0.014-0.016,0.021-0.022   c0.036-0.036,0.068-0.076,0.103-0.115c0.038-0.044,0.078-0.088,0.111-0.136c0.013-0.018,0.024-0.035,0.037-0.053   c0.004-0.006,0.01-0.01,0.014-0.016l2.805-4.422v4.644c0,0.968,0.784,1.753,1.752,1.753c0.076,0,0.148-0.013,0.223-0.023   c0.104,0.015,0.2,0.023,0.264,0.023c6.666,0,20.535,0,33.631-4.253c0.034-0.011,0.062-0.029,0.094-0.041   c0.068-0.027,0.135-0.054,0.2-0.088c0.025-0.015,0.052-0.031,0.077-0.047c0.079-0.047,0.152-0.098,0.224-0.157   c0.008-0.009,0.018-0.018,0.027-0.026c0.079-0.069,0.151-0.145,0.216-0.228c0.001,0,0.001-0.001,0.001-0.001   c0.209-0.264,0.336-0.584,0.365-0.926c0-0.002,0-0.004,0-0.006c0.008-0.093,0.011-0.186,0.003-0.28v-2.268l4.848,0.628   c0.077,0.01,0.152,0.015,0.228,0.015c0.305,0,0.594-0.084,0.848-0.225c0.147-0.052,0.288-0.116,0.416-0.203   c6.559-3.422,7.938-7.073,7.938-9.536V55.246c0-0.075-0.014-0.147-0.022-0.22C97.481,54.925,97.5,54.824,97.5,54.722z    M93.995,54.722c0,0.716-0.23,1.423-0.702,2.161c-0.916,1.431-2.73,2.88-5.241,4.206L57.36,54.747l27.154-7.993   C90.544,49.129,93.995,52.018,93.995,54.722z M6.383,56.753C9.112,51.013,26.172,45.074,50,45.074   c5.812,0,14.31,0.807,20.735,2.082l-21.09,6.208c-0.421,0.124-0.753,0.401-0.976,0.752c-0.26,0.306-0.422,0.697-0.422,1.129v5.257   c-0.001,0.001-0.001,0.001-0.002,0.002l-6.796,10.82C19.255,69.93,6.006,63.651,6.006,58.332   C6.006,57.809,6.132,57.278,6.383,56.753z M73.759,72.958c-6.784,1.443-14.646,2.255-22.891,2.347l3.417-6.202L73.759,72.958z    M43.613,82.662v-8.19l4.635-7.378v5.702l-1.864,3.382c-0.021,0.035-0.032,0.071-0.049,0.106c-0.024,0.05-0.05,0.1-0.07,0.152   c-0.022,0.061-0.039,0.12-0.056,0.182c-0.013,0.048-0.025,0.096-0.034,0.146c-0.011,0.066-0.017,0.131-0.02,0.197   c-0.002,0.034-0.01,0.066-0.01,0.101v1.605L43.613,82.662z M83.222,72.706c0.001-0.121-0.011-0.24-0.035-0.355   c-0.009-0.043-0.025-0.083-0.037-0.125c-0.019-0.067-0.035-0.135-0.062-0.199c-0.022-0.058-0.057-0.11-0.087-0.165   c-0.023-0.043-0.043-0.09-0.072-0.132c-0.034-0.053-0.077-0.099-0.117-0.147c-0.032-0.038-0.06-0.08-0.095-0.115   c-0.045-0.046-0.098-0.084-0.146-0.124c-0.038-0.03-0.071-0.065-0.112-0.092c-0.071-0.049-0.148-0.087-0.226-0.125   c-0.024-0.012-0.047-0.028-0.072-0.039c-0.108-0.047-0.225-0.083-0.345-0.107L53.71,65.416c-0.026-0.005-0.05-0.003-0.076-0.007   c-0.062-0.009-0.123-0.015-0.185-0.018c-0.057-0.003-0.111-0.004-0.167-0.001c-0.057,0.002-0.109,0.009-0.165,0.017   c-0.059,0.009-0.117,0.019-0.175,0.033c-0.05,0.013-0.101,0.03-0.149,0.047c-0.057,0.02-0.11,0.04-0.165,0.065   c-0.049,0.023-0.096,0.049-0.143,0.077c-0.049,0.029-0.099,0.06-0.145,0.093c-0.044,0.032-0.085,0.067-0.126,0.104   c-0.046,0.04-0.089,0.08-0.129,0.124c-0.035,0.038-0.068,0.078-0.1,0.121c-0.04,0.05-0.077,0.104-0.111,0.16   c-0.013,0.021-0.028,0.038-0.041,0.06l-0.081,0.147v-9.27l35.065,7.246v15.806l-3.597-0.465V72.706z"/></g></svg>